<?xml version="1.0" encoding="UTF-8"?>
<svg width="147px" height="40px" viewBox="0 0 147 40" version="1.1" xmlns="http://www.w3.org/2000/svg" xmlns:xlink="http://www.w3.org/1999/xlink">
    <title>编组</title>
    <defs>
        <polygon id="path-1" points="0 40 146.215078 40 146.215078 0 0 0"></polygon>
    </defs>
    <g id="页面-1" stroke="none" stroke-width="1" fill="none" fill-rule="evenodd">
        <g id="Landing-page" transform="translate(-647.000000, -60.000000)">
            <g id="编组" transform="translate(647.000000, 60.000000)">
                <polygon id="Fill-1" fill="#FFFFFF" points="68.3504445 22.2981476 64.4568 22.2981476 62.1733506 11.9824392 59.8700834 22.2981476 55.9758884 22.2981476 52.6327379 8.72076188 55.6499959 8.72076188 57.9532631 18.4248713 60.3181856 8.72076188 64.0494344 8.72076188 66.3730698 18.4248713 68.6565192 8.72076188 71.6737772 8.72076188"></polygon>
                <g>
                    <path d="M77.2771462,18.7304506 L75.8700834,18.7304506 C75.2381162,18.7304506 74.9936968,18.8933968 74.9936968,19.4438909 C74.9936968,19.994385 75.2177479,20.2189865 75.7886103,20.2189865 C76.4002092,20.2189865 76.8284936,20.0758581 77.2771462,19.8721753 L77.2771462,18.7304506 Z M77.807272,22.2982026 L77.6030387,21.6662354 C76.4618645,22.2982026 75.4423495,22.5018854 74.7690953,22.5018854 C72.9342985,22.5018854 72.1801217,21.1768462 72.1801217,19.4851779 C72.1801217,17.4868845 73.0977953,16.691971 75.1362748,16.691971 L77.2771462,16.691971 L77.2771462,15.9377942 C77.2771462,14.9182792 77.0932812,14.5714679 75.5232721,14.5714679 C74.6474361,14.5714679 73.770499,14.6733093 72.8330076,14.8571743 L72.4454598,12.655198 C73.3829512,12.3700421 74.8714872,12.1663593 76.0126614,12.1663593 C79.4582037,12.1663593 80.2123806,13.2056921 80.2123806,15.9581625 L80.2123806,22.2982026 L77.807272,22.2982026 Z" id="Fill-2" fill="#FFFFFF"></path>
                    <path d="M88.5090419,12.369932 L91.647959,12.369932 L89.0386172,17.3034599 L91.7707192,22.2980925 L88.6312515,22.2980925 L85.9806226,17.3034599 L88.5090419,12.369932 Z M82.6578404,22.2980925 L82.6578404,8.31279073 L85.5936253,7.90542512 L85.5936253,22.2980925 L82.6578404,22.2980925 Z" id="Fill-4" fill="#FFFFFF"></path>
                    <path d="M98.190526,18.7304506 L96.7834632,18.7304506 C96.151496,18.7304506 95.9070766,18.8933968 95.9070766,19.4438909 C95.9070766,19.994385 96.1311277,20.2189865 96.70199,20.2189865 C97.3135889,20.2189865 97.7418733,20.0758581 98.190526,19.8721753 L98.190526,18.7304506 Z M98.7206518,22.2982026 L98.5164185,21.6662354 C97.3752443,22.2982026 96.3557293,22.5018854 95.682475,22.5018854 C93.8476783,22.5018854 93.0935014,21.1768462 93.0935014,19.4851779 C93.0935014,17.4868845 94.011175,16.691971 96.0496546,16.691971 L98.190526,16.691971 L98.190526,15.9377942 C98.190526,14.9182792 98.006661,14.5714679 96.4366519,14.5714679 C95.5608158,14.5714679 94.6838788,14.6733093 93.7463874,14.8571743 L93.3588396,12.655198 C94.296331,12.3700421 95.7848669,12.1663593 96.9260411,12.1663593 C100.371583,12.1663593 101.12576,13.2056921 101.12576,15.9581625 L101.12576,22.2982026 L98.7206518,22.2982026 Z" id="Fill-6" fill="#FFFFFF"></path>
                    <path d="M109.361152,22.2981476 L109.361152,15.7335058 C109.361152,15.2854036 109.157469,15.0200655 108.647161,15.0200655 C108.117035,15.0200655 107.138807,15.3872451 106.50684,15.7335058 L106.50684,22.2981476 L103.571055,22.2981476 L103.571055,12.3699871 L105.752663,12.3699871 L106.058187,13.1241639 C107.281936,12.5329333 108.871762,12.1663043 110.013487,12.1663043 C111.705706,12.1663043 112.296386,13.4302386 112.296386,15.3465085 L112.296386,22.2981476 L109.361152,22.2981476 Z" id="Fill-8" fill="#FFFFFF"></path>
                    <mask id="mask-2" fill="white">
                        <use xlink:href="#path-1"></use>
                    </mask>
                    <g id="Clip-11"></g>
                    <path d="M114.842972,22.2983127 L117.778756,22.2983127 L117.778756,12.3701522 L114.842972,12.3701522 L114.842972,22.2983127 Z M114.842972,11.1265861 L117.778756,11.1265861 L117.778756,8.00748672 L114.842972,8.00748672 L114.842972,11.1265861 Z" id="Fill-10" fill="#FFFFFF" mask="url(#mask-2)"></path>
                    <path d="M123.261677,12.369932 L123.261677,18.9345738 C123.261677,19.382676 123.46536,19.6480141 123.975118,19.6480141 C124.505243,19.6480141 125.484022,19.2808345 126.115989,18.9345738 L126.115989,12.369932 L129.051774,12.369932 L129.051774,22.2980925 L126.870166,22.2980925 L126.564091,21.5439157 C125.340893,22.1351463 123.751067,22.5017753 122.609342,22.5017753 C120.917123,22.5017753 120.325892,21.237841 120.325892,19.3215711 L120.325892,12.369932 L123.261677,12.369932 Z" id="Fill-12" fill="#FFFFFF" mask="url(#mask-2)"></path>
                    <path d="M137.490132,22.2981476 L137.490132,15.7335058 C137.490132,15.2854036 137.28645,15.0200655 136.776142,15.0200655 C136.246016,15.0200655 135.267788,15.3872451 134.635821,15.7335058 L134.635821,22.2981476 L131.700036,22.2981476 L131.700036,12.3699871 L133.881644,12.3699871 L134.187168,13.1241639 C135.410916,12.5329333 137.000743,12.1663043 138.142468,12.1663043 C139.018854,12.1663043 139.610636,12.512565 139.956346,13.1241639 C141.078253,12.5736699 142.566238,12.1663043 143.932014,12.1663043 C145.624233,12.1663043 146.215463,13.4302386 146.215463,15.3465085 L146.215463,22.2981476 L143.280229,22.2981476 L143.280229,15.7335058 C143.280229,15.2854036 143.075445,15.0200655 142.566238,15.0200655 C142.036112,15.0200655 141.057334,15.3872451 140.425367,15.7335058 L140.425367,22.2981476 L137.490132,22.2981476 Z" id="Fill-13" fill="#FFFFFF" mask="url(#mask-2)"></path>
                    <path d="M24.7191655,30.1874432 L23.5493656,35.5112714 C23.36495,36.3518758 22.5562743,36.3606837 22.3636013,35.5239327 L21.1348986,30.2001046 C20.9978255,29.6061215 21.2989458,28.9901186 21.7266797,28.9901186 L24.1246319,28.9901186 C24.5485123,28.9901186 24.8490821,29.5956621 24.7191655,30.1874432 L24.7191655,30.1874432 Z M23.9831549,3.98888002 C23.5961576,3.21488536 22.4940684,3.20662795 22.0955107,3.97511767 L15.9806226,15.7683521 C15.8672208,15.9874487 15.8336407,16.239575 15.8859376,16.4806914 L21.9991743,39.165451 C22.2413916,40.2824035 23.837274,40.276348 24.0712339,39.1577441 L29.9670254,16.4685806 C30.0160194,16.2346206 29.9846412,15.9913022 29.8778454,15.7777105 L23.9831549,3.98888002 Z" id="Fill-14" fill="#FFFFFF" mask="url(#mask-2)"></path>
                    <path d="M45.7952162,24.2397952 L39.7568468,5.56703642 C39.6808786,5.33142495 39.5245383,5.12994412 39.3153505,4.99782555 L31.6794473,0.165588616 C30.9610525,-0.288568991 30.0268641,0.245410256 30.0543888,1.0948226 L30.3483526,10.2043984 C30.3566101,10.4603782 30.4573505,10.7042471 30.6313066,10.891415 L44.0116154,25.2868349 C44.7834081,26.11698 46.1442294,25.3182131 45.7952162,24.2397952" id="Fill-15" fill="#FFFFFF" mask="url(#mask-2)"></path>
                    <path d="M14.3010102,0.154909031 L6.50491316,4.87594616 C6.28581652,5.00861523 6.12287028,5.215601 6.04470012,5.45946987 L0.0553246539,24.1779197 C-0.290385621,25.2574386 1.07263769,26.0518015 1.84167791,25.2194545 L15.1586799,10.8042168 C15.3265806,10.6225537 15.4256695,10.3874928 15.4383309,10.1403209 L15.9073518,1.11607167 C15.9513914,0.267209821 15.0282128,-0.285486224 14.3010102,0.154909031" id="Fill-16" fill="#FFFFFF" mask="url(#mask-2)"></path>
                </g>
            </g>
        </g>
    </g>
</svg>